<svg width="24" height="24" viewBox="0 0 24 24" fill="none" xmlns="http://www.w3.org/2000/svg">
<rect width="24" height="24" rx="2" fill="#1A1A1A"/>
<g clip-path="url(#clip0_2412_96)">
<path d="M11.7353 2.7924C13.6454 5.21734 14.6651 8.20768 14.6281 11.2761V12.0086L15.2583 12.3921C16.0726 12.885 16.6799 13.6496 16.9695 14.5464C16.7152 14.3592 16.4492 14.1879 16.173 14.0337L14.4925 13.0901L14.1905 14.9945C14.1643 15.1628 14.1293 15.3296 14.0855 15.4943H9.3764C9.30638 15.2789 9.24949 15.0635 9.19697 14.8394L8.81622 13.1159L7.26695 13.9777C7.00813 14.1224 6.75823 14.2821 6.51858 14.4559C6.81385 13.5695 7.40846 12.8092 8.20351 12.3016L8.80309 11.9181V11.2374C8.8139 8.18135 9.84584 5.21375 11.7397 2.7924H11.7353ZM11.7397 1C11.6415 1.00024 11.5466 1.03544 11.4727 1.0991L11.4333 1.13357C8.90968 3.91233 7.50833 7.50554 7.49453 11.2331C6.42361 11.9171 5.6309 12.9499 5.25492 14.1509C4.87894 15.352 4.9436 16.6449 5.4376 17.8038C5.958 16.6722 6.82795 15.7313 7.92342 15.1152C8.03329 15.5837 8.1796 16.0432 8.36107 16.4896C8.38408 16.5754 8.43509 16.6514 8.50626 16.7059C8.57742 16.7604 8.6648 16.7904 8.75495 16.7912H14.8295C14.952 16.7912 15.0745 16.6749 15.1358 16.4939C15.3129 16.0695 15.4364 15.6253 15.5034 15.1712C16.601 15.7848 17.4716 16.7264 17.9892 17.8598C18.5131 16.7066 18.5942 15.4055 18.2175 14.198C17.8408 12.9904 17.032 11.9584 15.9411 11.2934C15.9844 7.54388 14.5904 3.9161 12.0373 1.13357C11.9993 1.09172 11.9527 1.0582 11.9007 1.03519C11.8487 1.01218 11.7923 1.00019 11.7353 1H11.7397Z" fill="#4EA8DE"/>
<path d="M11.7353 10.8754C11.3992 10.8754 11.0706 10.7774 10.7909 10.5938C10.5112 10.4102 10.293 10.1492 10.1638 9.84371C10.0346 9.5382 10.0001 9.20186 10.0647 8.87709C10.1294 8.55233 10.2902 8.25366 10.527 8.01876C10.7638 7.78385 11.0659 7.62321 11.3952 7.55708C11.7246 7.49096 12.0665 7.52231 12.3778 7.64719C12.6891 7.77207 12.9559 7.98488 13.1445 8.2588C13.3331 8.53272 13.4352 8.85549 13.4378 9.18643V9.18643C13.443 9.40089 13.4053 9.61426 13.3267 9.81436C13.2482 10.0145 13.1303 10.1974 12.98 10.3526C12.8296 10.5079 12.6496 10.6324 12.4503 10.7192C12.251 10.8059 12.0363 10.8532 11.8185 10.8582C11.791 10.8625 11.7629 10.8625 11.7353 10.8582V10.8754Z" fill="#4EA8DE"/>
<path d="M14.1029 17.8641C13.9934 17.8606 13.8843 17.8787 13.782 17.9174C13.6797 17.956 13.5863 18.0143 13.5072 18.089C13.4281 18.1636 13.365 18.2531 13.3215 18.3521C13.278 18.4511 13.255 18.5576 13.2539 18.6655V21.2076C13.2539 21.4293 13.3434 21.6419 13.5026 21.7986C13.6618 21.9554 13.8778 22.0435 14.1029 22.0435C14.3281 22.0435 14.5441 21.9554 14.7033 21.7986C14.8625 21.6419 14.952 21.4293 14.952 21.2076V18.6999C14.9555 18.5925 14.9372 18.4854 14.8982 18.385C14.8593 18.2846 14.8004 18.1928 14.7251 18.115C14.6497 18.0372 14.5594 17.9749 14.4593 17.9318C14.3593 17.8888 14.2515 17.8657 14.1423 17.8641H14.1029Z" fill="#5E60CE"/>
<path d="M9.37639 17.8641C9.26502 17.8583 9.15361 17.8746 9.04878 17.9121C8.94395 17.9495 8.84785 18.0073 8.76618 18.0821C8.68452 18.1569 8.61897 18.2471 8.57343 18.3473C8.52789 18.4475 8.50329 18.5557 8.5011 18.6655V21.2076C8.5011 21.4293 8.59055 21.6419 8.74977 21.7987C8.909 21.9554 9.12495 22.0435 9.35013 22.0435C9.57531 22.0435 9.79126 21.9554 9.95048 21.7987C10.1097 21.6419 10.1992 21.4293 10.1992 21.2076V18.7C10.2027 18.5925 10.1844 18.4855 10.1454 18.385C10.1065 18.2846 10.0476 18.1928 9.97225 18.115C9.89689 18.0372 9.80655 17.9749 9.7065 17.9319C9.60646 17.8888 9.4987 17.8657 9.38952 17.8641H9.37639Z" fill="#5E60CE"/>
<path d="M11.674 17.8641C11.5648 17.8618 11.4562 17.8807 11.3545 17.9197C11.2527 17.9588 11.1597 18.0172 11.0809 18.0916C11.002 18.166 10.9389 18.255 10.895 18.3535C10.8511 18.452 10.8273 18.558 10.825 18.6655V22.1684C10.825 22.3901 10.9145 22.6027 11.0737 22.7595C11.2329 22.9162 11.4489 23.0043 11.674 23.0043C11.8992 23.0043 12.1152 22.9162 12.2744 22.7595C12.4336 22.6027 12.5231 22.3901 12.5231 22.1684V18.7215C12.5266 18.614 12.5083 18.507 12.4694 18.4066C12.4304 18.3061 12.3715 18.2143 12.2962 18.1365C12.2208 18.0587 12.1305 17.9965 12.0304 17.9534C11.9304 17.9103 11.8226 17.8873 11.7134 17.8856L11.674 17.8641Z" fill="#5E60CE"/>
</g>
<defs>
<clipPath id="clip0_2412_96">
<rect width="13.4444" height="22" fill="white" transform="translate(5 1)"/>
</clipPath>
</defs>
</svg>
